<svg width="257" height="202" viewBox="0 0 257 202" fill="none" xmlns="http://www.w3.org/2000/svg">
<g filter="url(#filter0_d_5_49)">
<rect x="39.0148" y="35.9142" width="178.154" height="122.355" rx="13" fill="white"/>
<path d="M67.3138 145.824C66.6138 145.824 65.9931 145.735 65.4518 145.558C64.9198 145.371 64.4718 145.101 64.1078 144.746C63.7438 144.391 63.4685 143.948 63.2818 143.416C63.1045 142.875 63.0158 142.249 63.0158 141.54V136.78C63.0158 136.416 63.1091 136.141 63.2958 135.954C63.4825 135.767 63.7531 135.674 64.1078 135.674C64.4531 135.674 64.7191 135.767 64.9058 135.954C65.0925 136.141 65.1858 136.416 65.1858 136.78V141.554C65.1858 142.357 65.3678 142.963 65.7318 143.374C66.0958 143.775 66.6231 143.976 67.3138 143.976C68.0045 143.976 68.5271 143.775 68.8818 143.374C69.2458 142.963 69.4278 142.357 69.4278 141.554V136.78C69.4278 136.416 69.5211 136.141 69.7078 135.954C69.8945 135.767 70.1605 135.674 70.5058 135.674C70.8511 135.674 71.1125 135.767 71.2898 135.954C71.4765 136.141 71.5698 136.416 71.5698 136.78V141.54C71.5698 142.483 71.4065 143.276 71.0798 143.92C70.7625 144.555 70.2865 145.031 69.6518 145.348C69.0265 145.665 68.2471 145.824 67.3138 145.824ZM74.3721 148.316C74.0268 148.316 73.7608 148.223 73.5741 148.036C73.3968 147.859 73.3081 147.593 73.3081 147.238V139.748C73.3081 139.403 73.3968 139.141 73.5741 138.964C73.7608 138.777 74.0174 138.684 74.3441 138.684C74.6894 138.684 74.9508 138.777 75.1281 138.964C75.3054 139.141 75.3941 139.403 75.3941 139.748V140.7L75.2401 140.154C75.3801 139.706 75.6601 139.347 76.0801 139.076C76.5094 138.796 76.9994 138.656 77.5501 138.656C78.1474 138.656 78.6701 138.801 79.1181 139.09C79.5754 139.379 79.9301 139.79 80.1821 140.322C80.4341 140.854 80.5601 141.489 80.5601 142.226C80.5601 142.963 80.4341 143.603 80.1821 144.144C79.9301 144.685 79.5801 145.101 79.1321 145.39C78.6841 145.679 78.1568 145.824 77.5501 145.824C77.0088 145.824 76.5281 145.693 76.1081 145.432C75.6881 145.161 75.4034 144.811 75.2541 144.382H75.4221V147.238C75.4221 147.593 75.3288 147.859 75.1421 148.036C74.9648 148.223 74.7081 148.316 74.3721 148.316ZM76.9201 144.242C77.2188 144.242 77.4801 144.167 77.7041 144.018C77.9374 143.869 78.1148 143.649 78.2361 143.36C78.3668 143.061 78.4321 142.683 78.4321 142.226C78.4321 141.545 78.2921 141.045 78.0121 140.728C77.7321 140.401 77.3681 140.238 76.9201 140.238C76.6214 140.238 76.3554 140.308 76.1221 140.448C75.8981 140.588 75.7208 140.807 75.5901 141.106C75.4594 141.395 75.3941 141.769 75.3941 142.226C75.3941 142.907 75.5341 143.416 75.8141 143.752C76.0941 144.079 76.4628 144.242 76.9201 144.242ZM85.157 148.344C84.653 148.344 84.1677 148.302 83.701 148.218C83.2437 148.134 82.8377 148.008 82.483 147.84C82.2683 147.747 82.1143 147.625 82.021 147.476C81.937 147.327 81.8997 147.168 81.909 147C81.9277 146.832 81.9837 146.683 82.077 146.552C82.1797 146.421 82.3057 146.328 82.455 146.272C82.6043 146.225 82.763 146.239 82.931 146.314C83.3417 146.501 83.7197 146.622 84.065 146.678C84.4197 146.734 84.723 146.762 84.975 146.762C85.5723 146.762 86.0203 146.627 86.319 146.356C86.6177 146.085 86.767 145.67 86.767 145.11V144.046H86.893C86.753 144.475 86.4637 144.825 86.025 145.096C85.5863 145.367 85.101 145.502 84.569 145.502C83.953 145.502 83.4163 145.362 82.959 145.082C82.5017 144.793 82.147 144.391 81.895 143.878C81.643 143.355 81.517 142.753 81.517 142.072C81.517 141.559 81.587 141.092 81.727 140.672C81.8763 140.252 82.0817 139.893 82.343 139.594C82.6137 139.295 82.9357 139.067 83.309 138.908C83.6917 138.74 84.1117 138.656 84.569 138.656C85.1197 138.656 85.605 138.791 86.025 139.062C86.4543 139.323 86.739 139.669 86.879 140.098L86.739 140.546V139.748C86.739 139.403 86.8277 139.141 87.005 138.964C87.1917 138.777 87.453 138.684 87.789 138.684C88.125 138.684 88.3817 138.777 88.559 138.964C88.7363 139.141 88.825 139.403 88.825 139.748V144.872C88.825 146.02 88.5077 146.883 87.873 147.462C87.2477 148.05 86.3423 148.344 85.157 148.344ZM85.199 143.92C85.5163 143.92 85.787 143.845 86.011 143.696C86.2443 143.547 86.4263 143.337 86.557 143.066C86.6877 142.786 86.753 142.455 86.753 142.072C86.753 141.493 86.6083 141.045 86.319 140.728C86.039 140.401 85.6657 140.238 85.199 140.238C84.8817 140.238 84.6063 140.313 84.373 140.462C84.1397 140.602 83.9577 140.812 83.827 141.092C83.7057 141.363 83.645 141.689 83.645 142.072C83.645 142.651 83.785 143.103 84.065 143.43C84.345 143.757 84.723 143.92 85.199 143.92ZM91.5583 145.796C91.2036 145.796 90.933 145.703 90.7463 145.516C90.5596 145.329 90.4663 145.063 90.4663 144.718V139.748C90.4663 139.403 90.555 139.141 90.7323 138.964C90.919 138.777 91.1756 138.684 91.5023 138.684C91.8383 138.684 92.095 138.777 92.2723 138.964C92.4496 139.141 92.5383 139.403 92.5383 139.748V140.476H92.3983C92.5103 139.916 92.7576 139.482 93.1403 139.174C93.523 138.866 94.0176 138.693 94.6243 138.656C94.8576 138.637 95.035 138.698 95.1563 138.838C95.287 138.969 95.357 139.188 95.3663 139.496C95.385 139.785 95.3243 140.014 95.1843 140.182C95.0536 140.35 94.8296 140.453 94.5123 140.49L94.1903 140.518C93.6583 140.565 93.2616 140.719 93.0003 140.98C92.7483 141.241 92.6223 141.619 92.6223 142.114V144.718C92.6223 145.063 92.529 145.329 92.3423 145.516C92.165 145.703 91.9036 145.796 91.5583 145.796ZM98.4915 145.824C97.9875 145.824 97.5348 145.726 97.1335 145.53C96.7321 145.334 96.4195 145.068 96.1955 144.732C95.9715 144.396 95.8595 144.018 95.8595 143.598C95.8595 143.094 95.9901 142.697 96.2515 142.408C96.5128 142.109 96.9375 141.899 97.5255 141.778C98.1135 141.647 98.8928 141.582 99.8635 141.582H100.605V142.674H99.8775C99.4015 142.674 99.0141 142.702 98.7155 142.758C98.4261 142.805 98.2161 142.889 98.0855 143.01C97.9641 143.131 97.9035 143.299 97.9035 143.514C97.9035 143.775 97.9921 143.99 98.1695 144.158C98.3561 144.326 98.6221 144.41 98.9675 144.41C99.2381 144.41 99.4761 144.349 99.6815 144.228C99.8961 144.097 100.064 143.925 100.185 143.71C100.307 143.486 100.367 143.234 100.367 142.954V141.344C100.367 140.933 100.274 140.644 100.087 140.476C99.9008 140.299 99.5835 140.21 99.1355 140.21C98.8835 140.21 98.6081 140.243 98.3095 140.308C98.0201 140.364 97.6981 140.462 97.3435 140.602C97.1381 140.695 96.9561 140.719 96.7975 140.672C96.6388 140.616 96.5175 140.523 96.4335 140.392C96.3495 140.252 96.3075 140.103 96.3075 139.944C96.3075 139.776 96.3541 139.617 96.4475 139.468C96.5408 139.309 96.6948 139.193 96.9095 139.118C97.3481 138.941 97.7588 138.819 98.1415 138.754C98.5335 138.689 98.8928 138.656 99.2195 138.656C99.9381 138.656 100.526 138.763 100.983 138.978C101.45 139.183 101.8 139.505 102.033 139.944C102.267 140.373 102.383 140.929 102.383 141.61V144.718C102.383 145.063 102.299 145.329 102.131 145.516C101.963 145.703 101.721 145.796 101.403 145.796C101.086 145.796 100.839 145.703 100.661 145.516C100.493 145.329 100.409 145.063 100.409 144.718V144.2L100.507 144.284C100.451 144.601 100.33 144.877 100.143 145.11C99.9661 145.334 99.7375 145.511 99.4575 145.642C99.1775 145.763 98.8555 145.824 98.4915 145.824ZM106.634 145.824C106.037 145.824 105.51 145.679 105.052 145.39C104.604 145.101 104.254 144.685 104.002 144.144C103.75 143.603 103.624 142.963 103.624 142.226C103.624 141.489 103.75 140.854 104.002 140.322C104.254 139.79 104.604 139.379 105.052 139.09C105.51 138.801 106.037 138.656 106.634 138.656C107.176 138.656 107.652 138.787 108.062 139.048C108.482 139.309 108.767 139.65 108.916 140.07H108.762V136.752C108.762 136.397 108.851 136.131 109.028 135.954C109.206 135.767 109.467 135.674 109.812 135.674C110.148 135.674 110.41 135.767 110.596 135.954C110.783 136.131 110.876 136.397 110.876 136.752V144.718C110.876 145.063 110.783 145.329 110.596 145.516C110.419 145.703 110.162 145.796 109.826 145.796C109.49 145.796 109.229 145.703 109.042 145.516C108.865 145.329 108.776 145.063 108.776 144.718V143.766L108.93 144.312C108.8 144.769 108.52 145.138 108.09 145.418C107.67 145.689 107.185 145.824 106.634 145.824ZM107.264 144.242C107.572 144.242 107.838 144.167 108.062 144.018C108.286 143.869 108.464 143.649 108.594 143.36C108.725 143.061 108.79 142.683 108.79 142.226C108.79 141.545 108.65 141.045 108.37 140.728C108.09 140.401 107.722 140.238 107.264 140.238C106.966 140.238 106.7 140.308 106.466 140.448C106.242 140.588 106.065 140.807 105.934 141.106C105.813 141.395 105.752 141.769 105.752 142.226C105.752 142.907 105.892 143.416 106.172 143.752C106.452 144.079 106.816 144.242 107.264 144.242ZM116.075 145.824C115.263 145.824 114.563 145.679 113.975 145.39C113.397 145.091 112.949 144.676 112.631 144.144C112.323 143.603 112.169 142.968 112.169 142.24C112.169 141.531 112.319 140.91 112.617 140.378C112.916 139.837 113.331 139.417 113.863 139.118C114.405 138.81 115.016 138.656 115.697 138.656C116.192 138.656 116.64 138.74 117.041 138.908C117.443 139.067 117.788 139.3 118.077 139.608C118.367 139.907 118.586 140.275 118.735 140.714C118.885 141.143 118.959 141.624 118.959 142.156C118.959 142.333 118.903 142.469 118.791 142.562C118.679 142.646 118.516 142.688 118.301 142.688H113.905V141.596H117.433L117.209 141.792C117.209 141.409 117.153 141.092 117.041 140.84C116.929 140.579 116.766 140.383 116.551 140.252C116.346 140.121 116.089 140.056 115.781 140.056C115.436 140.056 115.142 140.135 114.899 140.294C114.657 140.453 114.47 140.681 114.339 140.98C114.209 141.279 114.143 141.638 114.143 142.058V142.17C114.143 142.879 114.307 143.402 114.633 143.738C114.969 144.074 115.464 144.242 116.117 144.242C116.341 144.242 116.598 144.214 116.887 144.158C117.177 144.102 117.447 144.013 117.699 143.892C117.914 143.789 118.105 143.757 118.273 143.794C118.441 143.822 118.572 143.897 118.665 144.018C118.759 144.139 118.81 144.279 118.819 144.438C118.838 144.597 118.805 144.755 118.721 144.914C118.637 145.063 118.497 145.189 118.301 145.292C117.984 145.469 117.625 145.6 117.223 145.684C116.831 145.777 116.449 145.824 116.075 145.824ZM127.711 145.796C127.356 145.796 127.086 145.698 126.899 145.502C126.712 145.306 126.619 145.026 126.619 144.662V140.602L127.067 141.848L123.763 137.158C123.632 136.962 123.576 136.752 123.595 136.528C123.614 136.295 123.707 136.094 123.875 135.926C124.043 135.758 124.281 135.674 124.589 135.674C124.813 135.674 125.014 135.73 125.191 135.842C125.378 135.954 125.555 136.131 125.723 136.374L127.963 139.608H127.515L129.755 136.374C129.932 136.122 130.105 135.945 130.273 135.842C130.45 135.73 130.656 135.674 130.889 135.674C131.188 135.674 131.421 135.753 131.589 135.912C131.757 136.061 131.846 136.253 131.855 136.486C131.864 136.71 131.785 136.943 131.617 137.186L128.355 141.848L128.789 140.602V144.662C128.789 145.418 128.43 145.796 127.711 145.796ZM135.046 145.824C134.308 145.824 133.664 145.679 133.114 145.39C132.572 145.101 132.152 144.685 131.854 144.144C131.555 143.603 131.406 142.963 131.406 142.226C131.406 141.675 131.49 141.181 131.658 140.742C131.826 140.303 132.068 139.93 132.386 139.622C132.712 139.305 133.1 139.067 133.548 138.908C133.996 138.74 134.495 138.656 135.046 138.656C135.783 138.656 136.422 138.801 136.964 139.09C137.514 139.379 137.939 139.79 138.238 140.322C138.546 140.854 138.7 141.489 138.7 142.226C138.7 142.786 138.611 143.285 138.434 143.724C138.266 144.163 138.023 144.541 137.706 144.858C137.388 145.175 137.001 145.418 136.544 145.586C136.096 145.745 135.596 145.824 135.046 145.824ZM135.046 144.242C135.354 144.242 135.62 144.167 135.844 144.018C136.068 143.869 136.245 143.649 136.376 143.36C136.506 143.061 136.572 142.683 136.572 142.226C136.572 141.545 136.432 141.045 136.152 140.728C135.872 140.401 135.503 140.238 135.046 140.238C134.747 140.238 134.481 140.308 134.248 140.448C134.024 140.588 133.846 140.807 133.716 141.106C133.594 141.395 133.534 141.769 133.534 142.226C133.534 142.907 133.674 143.416 133.954 143.752C134.234 144.079 134.598 144.242 135.046 144.242ZM142.52 145.824C141.941 145.824 141.46 145.717 141.078 145.502C140.695 145.287 140.41 144.965 140.224 144.536C140.046 144.097 139.958 143.556 139.958 142.912V139.748C139.958 139.393 140.046 139.127 140.224 138.95C140.41 138.773 140.672 138.684 141.008 138.684C141.344 138.684 141.605 138.773 141.792 138.95C141.978 139.127 142.072 139.393 142.072 139.748V142.968C142.072 143.379 142.156 143.687 142.324 143.892C142.492 144.088 142.758 144.186 143.122 144.186C143.523 144.186 143.85 144.046 144.102 143.766C144.363 143.477 144.494 143.099 144.494 142.632V139.748C144.494 139.393 144.582 139.127 144.76 138.95C144.946 138.773 145.208 138.684 145.544 138.684C145.889 138.684 146.15 138.773 146.328 138.95C146.514 139.127 146.608 139.393 146.608 139.748V144.718C146.608 145.437 146.267 145.796 145.586 145.796C145.25 145.796 144.993 145.703 144.816 145.516C144.638 145.329 144.55 145.063 144.55 144.718V143.78L144.76 144.326C144.554 144.802 144.26 145.171 143.878 145.432C143.495 145.693 143.042 145.824 142.52 145.824ZM149.336 145.796C148.981 145.796 148.71 145.703 148.524 145.516C148.337 145.329 148.244 145.063 148.244 144.718V139.748C148.244 139.403 148.332 139.141 148.51 138.964C148.696 138.777 148.953 138.684 149.28 138.684C149.616 138.684 149.872 138.777 150.05 138.964C150.227 139.141 150.316 139.403 150.316 139.748V140.476H150.176C150.288 139.916 150.535 139.482 150.918 139.174C151.3 138.866 151.795 138.693 152.402 138.656C152.635 138.637 152.812 138.698 152.934 138.838C153.064 138.969 153.134 139.188 153.144 139.496C153.162 139.785 153.102 140.014 152.962 140.182C152.831 140.35 152.607 140.453 152.29 140.49L151.968 140.518C151.436 140.565 151.039 140.719 150.778 140.98C150.526 141.241 150.4 141.619 150.4 142.114V144.718C150.4 145.063 150.306 145.329 150.12 145.516C149.942 145.703 149.681 145.796 149.336 145.796ZM161.633 145.824C161.241 145.824 160.84 145.791 160.429 145.726C160.028 145.67 159.641 145.586 159.267 145.474C158.903 145.362 158.577 145.222 158.287 145.054C158.082 144.942 157.937 144.797 157.853 144.62C157.769 144.433 157.737 144.247 157.755 144.06C157.783 143.873 157.853 143.71 157.965 143.57C158.087 143.421 158.236 143.327 158.413 143.29C158.6 143.243 158.805 143.276 159.029 143.388C159.412 143.603 159.827 143.761 160.275 143.864C160.733 143.967 161.185 144.018 161.633 144.018C162.315 144.018 162.8 143.915 163.089 143.71C163.379 143.495 163.523 143.229 163.523 142.912C163.523 142.641 163.421 142.427 163.215 142.268C163.01 142.109 162.651 141.974 162.137 141.862L160.555 141.526C159.659 141.339 158.992 141.022 158.553 140.574C158.124 140.117 157.909 139.519 157.909 138.782C157.909 138.315 158.007 137.891 158.203 137.508C158.399 137.125 158.675 136.794 159.029 136.514C159.384 136.234 159.804 136.019 160.289 135.87C160.784 135.721 161.325 135.646 161.913 135.646C162.436 135.646 162.949 135.711 163.453 135.842C163.957 135.963 164.401 136.145 164.783 136.388C164.97 136.5 165.096 136.645 165.161 136.822C165.236 136.99 165.259 137.163 165.231 137.34C165.213 137.508 165.143 137.657 165.021 137.788C164.909 137.919 164.765 138.003 164.587 138.04C164.41 138.077 164.195 138.035 163.943 137.914C163.635 137.755 163.309 137.639 162.963 137.564C162.618 137.489 162.263 137.452 161.899 137.452C161.507 137.452 161.171 137.503 160.891 137.606C160.621 137.709 160.411 137.853 160.261 138.04C160.121 138.227 160.051 138.441 160.051 138.684C160.051 138.955 160.149 139.174 160.345 139.342C160.541 139.51 160.882 139.645 161.367 139.748L162.949 140.084C163.864 140.28 164.545 140.597 164.993 141.036C165.441 141.465 165.665 142.035 165.665 142.744C165.665 143.211 165.572 143.635 165.385 144.018C165.199 144.391 164.928 144.713 164.573 144.984C164.219 145.255 163.794 145.465 163.299 145.614C162.805 145.754 162.249 145.824 161.633 145.824ZM167.956 145.796C167.611 145.796 167.345 145.703 167.158 145.516C166.981 145.329 166.892 145.063 166.892 144.718V136.752C166.892 136.397 166.981 136.131 167.158 135.954C167.345 135.767 167.611 135.674 167.956 135.674C168.292 135.674 168.549 135.767 168.726 135.954C168.913 136.131 169.006 136.397 169.006 136.752V141.638H169.034L171.064 139.384C171.269 139.151 171.456 138.978 171.624 138.866C171.801 138.745 172.035 138.684 172.324 138.684C172.613 138.684 172.833 138.759 172.982 138.908C173.141 139.057 173.22 139.239 173.22 139.454C173.229 139.659 173.141 139.869 172.954 140.084L170.812 142.478V141.68L173.192 144.424C173.369 144.639 173.444 144.853 173.416 145.068C173.397 145.283 173.304 145.46 173.136 145.6C172.968 145.731 172.753 145.796 172.492 145.796C172.175 145.796 171.918 145.735 171.722 145.614C171.535 145.493 171.344 145.306 171.148 145.054L169.034 142.702H169.006V144.718C169.006 145.437 168.656 145.796 167.956 145.796ZM175.763 145.782C175.417 145.782 175.151 145.684 174.965 145.488C174.787 145.283 174.699 144.998 174.699 144.634V139.846C174.699 139.473 174.787 139.188 174.965 138.992C175.151 138.787 175.417 138.684 175.763 138.684C176.099 138.684 176.355 138.787 176.533 138.992C176.719 139.188 176.813 139.473 176.813 139.846V144.634C176.813 144.998 176.724 145.283 176.547 145.488C176.369 145.684 176.108 145.782 175.763 145.782ZM175.763 137.536C175.371 137.536 175.067 137.447 174.853 137.27C174.647 137.083 174.545 136.822 174.545 136.486C174.545 136.141 174.647 135.879 174.853 135.702C175.067 135.515 175.371 135.422 175.763 135.422C176.155 135.422 176.453 135.515 176.659 135.702C176.864 135.879 176.967 136.141 176.967 136.486C176.967 136.822 176.864 137.083 176.659 137.27C176.453 137.447 176.155 137.536 175.763 137.536ZM180.923 145.824C180.092 145.824 179.471 145.595 179.061 145.138C178.65 144.671 178.445 143.981 178.445 143.066V136.752C178.445 136.397 178.533 136.131 178.711 135.954C178.897 135.767 179.163 135.674 179.509 135.674C179.845 135.674 180.101 135.767 180.279 135.954C180.465 136.131 180.559 136.397 180.559 136.752V142.982C180.559 143.365 180.638 143.649 180.797 143.836C180.965 144.013 181.184 144.102 181.455 144.102C181.529 144.102 181.599 144.097 181.665 144.088C181.73 144.079 181.8 144.074 181.875 144.074C182.024 144.055 182.127 144.102 182.183 144.214C182.248 144.317 182.281 144.527 182.281 144.844C182.281 145.124 182.225 145.339 182.113 145.488C182.001 145.628 181.828 145.721 181.595 145.768C181.501 145.777 181.394 145.787 181.273 145.796C181.151 145.815 181.035 145.824 180.923 145.824ZM185.585 145.824C184.754 145.824 184.134 145.595 183.723 145.138C183.312 144.671 183.107 143.981 183.107 143.066V136.752C183.107 136.397 183.196 136.131 183.373 135.954C183.56 135.767 183.826 135.674 184.171 135.674C184.507 135.674 184.764 135.767 184.941 135.954C185.128 136.131 185.221 136.397 185.221 136.752V142.982C185.221 143.365 185.3 143.649 185.459 143.836C185.627 144.013 185.846 144.102 186.117 144.102C186.192 144.102 186.262 144.097 186.327 144.088C186.392 144.079 186.462 144.074 186.537 144.074C186.686 144.055 186.789 144.102 186.845 144.214C186.91 144.317 186.943 144.527 186.943 144.844C186.943 145.124 186.887 145.339 186.775 145.488C186.663 145.628 186.49 145.721 186.257 145.768C186.164 145.777 186.056 145.787 185.935 145.796C185.814 145.815 185.697 145.824 185.585 145.824ZM190.333 145.824C189.922 145.824 189.497 145.787 189.059 145.712C188.629 145.637 188.237 145.511 187.883 145.334C187.696 145.241 187.561 145.124 187.477 144.984C187.402 144.835 187.369 144.685 187.379 144.536C187.388 144.387 187.435 144.251 187.519 144.13C187.612 144.009 187.729 143.929 187.869 143.892C188.018 143.845 188.181 143.859 188.359 143.934C188.741 144.093 189.091 144.205 189.409 144.27C189.726 144.335 190.039 144.368 190.347 144.368C190.748 144.368 191.037 144.307 191.215 144.186C191.401 144.055 191.495 143.887 191.495 143.682C191.495 143.495 191.434 143.355 191.313 143.262C191.191 143.169 191.014 143.103 190.781 143.066L189.311 142.8C188.732 142.697 188.284 142.487 187.967 142.17C187.659 141.843 187.505 141.428 187.505 140.924C187.505 140.457 187.635 140.056 187.897 139.72C188.158 139.375 188.517 139.113 188.975 138.936C189.441 138.749 189.969 138.656 190.557 138.656C190.977 138.656 191.364 138.693 191.719 138.768C192.073 138.843 192.414 138.964 192.741 139.132C192.909 139.216 193.025 139.328 193.091 139.468C193.165 139.608 193.189 139.753 193.161 139.902C193.142 140.051 193.086 140.187 192.993 140.308C192.899 140.429 192.778 140.509 192.629 140.546C192.489 140.583 192.325 140.565 192.139 140.49C191.84 140.35 191.565 140.252 191.313 140.196C191.061 140.131 190.818 140.098 190.585 140.098C190.165 140.098 189.861 140.168 189.675 140.308C189.488 140.439 189.395 140.607 189.395 140.812C189.395 140.971 189.446 141.106 189.549 141.218C189.661 141.321 189.829 141.391 190.053 141.428L191.523 141.694C192.129 141.797 192.591 142.002 192.909 142.31C193.226 142.609 193.385 143.019 193.385 143.542C193.385 144.251 193.105 144.811 192.545 145.222C191.994 145.623 191.257 145.824 190.333 145.824Z" fill="#24A3BE"/>
</g>
<path d="M192.699 118.098H68.5333L75.454 103.035C92.1451 85.9368 91.3309 100.185 102.73 105.478C111.849 109.711 120.371 97.7427 123.492 91.2291C124.577 84.7154 129.11 70.7926 138.555 67.2101C150.361 62.732 158.503 87.9723 169.901 84.7154C179.02 82.11 188.899 66.803 192.699 59.4752V118.098Z" fill="url(#paint0_linear_5_49)"/>
<path d="M67.604 119.035C71.4595 106.698 82.6404 85.7238 96.5201 100.529C110.4 115.334 121.195 97.0588 124.858 86.0707C128.135 73.1548 139.432 53.9159 158.401 80.2875C162.835 86.649 175.635 91.2756 191.365 58.8895" stroke="#FFA9A9" stroke-width="3" stroke-linecap="round" stroke-linejoin="round"/>
<path d="M106.898 65.7781C107.189 65.0025 106.796 64.1378 106.021 63.8467L93.3813 59.1039C92.6057 58.8129 91.741 59.2057 91.45 59.9813C91.1589 60.757 91.5518 61.6217 92.3274 61.9127L103.562 66.1285L99.3467 77.3636C99.0556 78.1392 99.4485 79.0039 100.224 79.2949C101 79.586 101.864 79.1932 102.155 78.4175L106.898 65.7781ZM64.105 85.7014L106.114 66.6168L104.873 63.8854L62.8641 82.9701L64.105 85.7014Z" fill="#FF7BA6"/>
<line x1="84.9892" y1="96.5829" x2="84.9892" y2="118.566" stroke="#FFA9A9"/>
<path d="M100.257 104.069V118.566" stroke="#FFA9A9"/>
<path d="M115.525 102.078V118.566" stroke="#FFA9A9"/>
<path d="M130.793 73.705V118.566" stroke="#FFA9A9"/>
<path d="M146.061 69.0591V118.566" stroke="#FFA9A9"/>
<path d="M161.329 82.9967V118.566" stroke="#FFA9A9"/>
<path d="M176.597 80.6738V118.566" stroke="#FFA9A9"/>
<path d="M191.865 58.9378L191.865 118.566" stroke="#FFA9A9"/>
<defs>
<filter id="filter0_d_5_49" x="0.0147705" y="0.914246" width="256.154" height="200.355" filterUnits="userSpaceOnUse" color-interpolation-filters="sRGB">
<feFlood flood-opacity="0" result="BackgroundImageFix"/>
<feColorMatrix in="SourceAlpha" type="matrix" values="0 0 0 0 0 0 0 0 0 0 0 0 0 0 0 0 0 0 127 0" result="hardAlpha"/>
<feOffset dy="4"/>
<feGaussianBlur stdDeviation="19.5"/>
<feComposite in2="hardAlpha" operator="out"/>
<feColorMatrix type="matrix" values="0 0 0 0 0 0 0 0 0 0 0 0 0 0 0 0 0 0 0.1 0"/>
<feBlend mode="normal" in2="BackgroundImageFix" result="effect1_dropShadow_5_49"/>
<feBlend mode="normal" in="SourceGraphic" in2="effect1_dropShadow_5_49" result="shape"/>
</filter>
<linearGradient id="paint0_linear_5_49" x1="130.616" y1="59.4752" x2="130.616" y2="118.098" gradientUnits="userSpaceOnUse">
<stop stop-color="#00E7AF"/>
<stop offset="1" stop-color="#6BE887" stop-opacity="0"/>
</linearGradient>
</defs>
</svg>
