<svg xmlns="http://www.w3.org/2000/svg" width="469" height="72" viewBox="0 0 469 72" fill="none">
    <path className="strokeAndFill" d="M434.786 28.1538V64.1538C434.786 66.7048 436.649 71.5741 443.082 70.9308C448.228 70.4161 449.515 66.1984 449.515 64.1538C449.586 60.6946 449.687 52.468 449.515 47.2358C449.343 42.0036 450.957 39.0011 451.786 38.1538C454.586 34.9538 459.953 34.4872 462.286 34.6538C466.286 34.6538 467.619 32.3205 467.786 31.1538C469.386 23.9538 466.119 22.1538 464.286 22.1538C455.486 21.3538 450.286 27.8205 448.786 31.1538L448.286 26.1538C447.953 24.6538 446.086 21.7538 441.286 22.1538C436.486 22.5538 434.953 26.3205 434.786 28.1538Z" stroke="var(--text-color-4)"/>
    <path className="strokeAndFill" d="M392.286 53.1538V27.6538C391.486 22.8538 387.286 21.9871 385.286 22.1538C380.286 22.1538 378.286 25.4871 377.786 27.6538V51.1538C377.786 57.1538 378.786 60.3205 379.286 61.1538C382.086 69.5538 390.453 71.3205 394.286 71.1538C402.686 71.9538 407.786 66.4871 409.286 63.6538C409.686 70.4538 414.786 71.1538 417.286 70.6538C422.486 70.6538 423.453 65.9871 423.286 63.6538V26.6538C422.953 25.1538 420.986 22.1538 415.786 22.1538C410.586 22.1538 408.953 26.4871 408.786 28.6538V48.1538C409.286 51.1538 408.586 57.6538 401.786 59.6538C394.986 61.6538 392.619 56.1538 392.286 53.1538Z" stroke="var(--text-color-4)"/>
    <path className="strokeAndFill" d="M343.286 22.1538C323.686 22.1538 319.119 38.1538 319.286 46.1538C319.286 66.5538 335.286 71.3205 343.286 71.1538C368.086 71.1538 370.619 51.1538 368.786 41.1538C368.453 34.8205 362.886 22.1538 343.286 22.1538Z" stroke="var(--text-color-4)"/>
    <path className="strokeNotFill" d="M354.786 46.6538C354.786 35.4538 347.786 32.6538 344.286 32.6538C335.086 32.6538 333.453 41.9871 333.786 46.6538C333.786 59.4538 341.453 60.9871 345.286 60.1538C348.453 60.3205 354.786 57.8538 354.786 46.6538Z" stroke="var(--text-color-4)"/>
    <path className="strokeAndFill" d="M309.286 4.65378L294.286 26.1538C290.953 21.1538 283.586 10.2538 280.786 6.65378C277.986 3.05378 275.286 1.82045 274.286 1.65378C273.286 1.32044 270.586 1.15377 267.786 3.15377C264.986 5.15377 265.619 9.32044 266.286 11.1538L286.286 39.6538V64.1538C286.286 65.6538 288.286 71.6538 294.286 71.1538C299.086 70.7538 300.953 67.3204 301.286 65.6538V39.6538L320.786 12.1538C321.786 10.8204 323.386 7.45378 321.786 4.65378C320.186 1.85378 317.119 1.48711 315.786 1.65378C312.986 1.25378 310.286 3.48711 309.286 4.65378Z" stroke="var(--text-color-4)"/>
    <path className="strokeAndFill" d="M151.286 42.6538V9.15383C151.286 2.35382 146.286 1.32049 143.786 1.65383C138.186 1.25383 136.786 6.48716 136.786 9.15383V64.6538C137.286 67.6538 138.786 71.1538 144.786 71.1538C149.586 71.1538 151.119 67.1538 151.286 65.1538V49.6538C155.619 54.4872 164.986 64.8538 167.786 67.6538C170.586 70.4538 172.286 70.8205 172.786 70.6538C177.986 71.8538 180.286 69.8205 180.786 68.6538C182.786 65.8538 181.286 62.8205 180.286 61.6538L166.286 45.6538C169.286 42.1538 175.786 34.6538 177.786 32.6538C179.786 30.6538 180.286 28.4872 180.286 27.6538C180.286 23.1538 176.286 22.1538 173.786 22.1538C171.786 22.1538 169.286 23.4872 168.286 24.1538L151.286 42.6538Z" stroke="var(--text-color-4)"/>
    <path className="strokeAndFill" d="M0.785889 7.65381V64.1538C0.785889 69.7538 5.45256 71.1538 7.78589 71.1538C12.1859 71.1538 13.9526 67.1538 14.2859 65.1538V29.1538L30.2859 57.1538C35.0859 63.1538 39.9526 59.6538 41.7859 57.1538L57.7859 28.6538V65.1538C58.1192 67.3205 59.8859 71.5538 64.2859 71.1538C68.6859 70.7538 70.4526 66.9871 70.7859 65.1538C71.1192 46.9871 71.5859 10.0538 70.7859 7.65381C69.7859 4.65382 68.7859 2.15381 64.2859 1.65381C60.6859 1.25382 58.1192 3.82048 57.2859 5.15381L36.2859 44.1538C32.7859 38.3205 24.4859 24.0538 19.2859 13.6538C14.0859 3.25381 10.1192 1.32048 8.78589 1.65381C2.78589 0.0538144 0.952555 4.98715 0.785889 7.65381Z" stroke="var(--text-color-4)"/>
    <path className="strokeAndFill" d="M108.786 33.6538C111.986 34.0538 112.453 39.4871 112.286 42.1538H104.286L97.7858 42.6538L91.7858 43.6538C90.6191 43.8204 87.6858 44.6538 85.2858 46.6538C82.8858 48.6538 81.9525 51.1538 81.7858 52.1538C81.1191 54.4871 80.7858 60.3538 84.7858 65.1538C88.7858 69.9538 95.4524 71.1538 98.2858 71.1538C107.086 72.3538 111.286 66.3204 112.286 63.1538C112.686 70.1454 117.453 71.4003 119.786 71.1538C124.986 71.1538 126.286 66.1538 126.286 63.6538C126.286 57.8204 126.086 44.0538 125.286 35.6538C124.486 27.2538 116.953 23.8204 113.286 23.1538C106.786 20.6538 97.7858 22.6538 94.7858 23.1538C92.3858 23.5538 88.7858 24.9871 87.2858 25.6538C84.0858 28.0538 84.2858 31.3204 84.7858 32.6538C85.9858 36.2538 89.2858 36.1538 90.7858 35.6538L96.2858 33.6538C103.086 32.0538 107.453 32.9871 108.786 33.6538Z" stroke="var(--text-color-4)"/>
    <path className="strokeNotFill" d="M107.443 60.2374C112.002 58.078 112.542 52.2065 112.242 49.5406C109.276 49.5406 102.585 49.7005 99.5456 50.3403C96.5065 50.9801 95.6134 53.2062 95.5468 54.2392C94.747 57.0383 96.8131 59.4043 97.9461 60.2374C99.2123 61.1371 102.885 62.3967 107.443 60.2374Z" stroke="var(--text-color-4)"/>
    <path className="strokeAndFill" d="M213.286 60.1538C203.686 60.1538 201.286 53.1538 201.286 49.6538H230.786C233.586 49.6538 233.953 47.3204 233.786 46.1538C234.186 26.9538 220.286 22.1538 213.286 22.1538C208.953 21.4871 198.586 22.4538 191.786 31.6538C184.986 40.8538 187.619 53.4871 189.786 58.6538C191.453 61.6538 196.886 68.1538 205.286 70.1538C215.786 72.6538 226.286 69.6538 230.786 66.6538C234.386 64.2538 232.953 59.9871 231.786 58.1538C230.786 57.3205 227.986 56.1538 224.786 58.1538C221.586 60.1538 215.786 60.3205 213.286 60.1538Z" stroke="var(--text-color-4)"/>
    <path className="strokeNotFill" d="M201.286 42.1537H221.786V40.6537C221.453 37.4871 218.886 31.2537 211.286 31.6537C203.686 32.0537 201.453 38.8204 201.286 42.1537Z" stroke="var(--text-color-4)"/>
</svg>
