<svg width="257" height="201" viewBox="0 0 257 201" fill="none" xmlns="http://www.w3.org/2000/svg">
<g filter="url(#filter0_d_5_19)">
<rect x="39.105" y="35.6443" width="178.154" height="122.355" rx="13" fill="white"/>
<rect x="49.9609" y="47.7164" width="156.442" height="72.3543" rx="13" fill="#FF7BA6"/>
<path d="M85.177 96.8219C84.4303 96.8219 83.8587 96.6236 83.462 96.2269C83.0653 95.8302 82.867 95.2819 82.867 94.5819C82.867 93.8586 83.0653 93.3102 83.462 92.9369C83.8587 92.5636 84.4303 92.3769 85.177 92.3769H88.712V76.5919H91.267L86.157 79.7069C85.6203 80.0336 85.1187 80.1619 84.652 80.0919C84.2087 80.0219 83.8237 79.8236 83.497 79.4969C83.1703 79.1702 82.9487 78.7852 82.832 78.3419C82.7387 77.8752 82.7853 77.4202 82.972 76.9769C83.1587 76.5102 83.5087 76.1136 84.022 75.7869L88.887 72.8469C89.377 72.5436 89.867 72.2986 90.357 72.1119C90.8703 71.9252 91.372 71.8319 91.862 71.8319C92.562 71.8319 93.1103 72.0186 93.507 72.3919C93.927 72.7419 94.137 73.2902 94.137 74.0369V92.3769H97.322C98.0453 92.3769 98.6053 92.5636 99.002 92.9369C99.3987 93.3102 99.597 93.8586 99.597 94.5819C99.597 95.3052 99.3987 95.8652 99.002 96.2619C98.6053 96.6352 98.0453 96.8219 97.322 96.8219H85.177ZM111.168 97.2069C108.182 97.2069 105.895 96.0986 104.308 93.8819C102.745 91.6419 101.963 88.4802 101.963 84.3969C101.963 81.6669 102.313 79.3686 103.013 77.5019C103.737 75.6119 104.775 74.1886 106.128 73.2319C107.505 72.2519 109.185 71.7619 111.168 71.7619C114.178 71.7619 116.465 72.8469 118.028 75.0169C119.592 77.1636 120.373 80.2902 120.373 84.3969C120.373 87.1269 120.012 89.4486 119.288 91.3619C118.588 93.2519 117.562 94.6986 116.208 95.7019C114.855 96.7052 113.175 97.2069 111.168 97.2069ZM111.168 92.7969C112.522 92.7969 113.525 92.1319 114.178 90.8019C114.832 89.4486 115.158 87.3136 115.158 84.3969C115.158 81.4802 114.832 79.3802 114.178 78.0969C113.525 76.8136 112.522 76.1719 111.168 76.1719C109.815 76.1719 108.812 76.8136 108.158 78.0969C107.505 79.3802 107.178 81.4802 107.178 84.3969C107.178 87.3136 107.505 89.4486 108.158 90.8019C108.812 92.1319 109.815 92.7969 111.168 92.7969ZM132.155 97.2069C129.168 97.2069 126.881 96.0986 125.295 93.8819C123.731 91.6419 122.95 88.4802 122.95 84.3969C122.95 81.6669 123.3 79.3686 124 77.5019C124.723 75.6119 125.761 74.1886 127.115 73.2319C128.491 72.2519 130.171 71.7619 132.155 71.7619C135.165 71.7619 137.451 72.8469 139.015 75.0169C140.578 77.1636 141.36 80.2902 141.36 84.3969C141.36 87.1269 140.998 89.4486 140.275 91.3619C139.575 93.2519 138.548 94.6986 137.195 95.7019C135.841 96.7052 134.161 97.2069 132.155 97.2069ZM132.155 92.7969C133.508 92.7969 134.511 92.1319 135.165 90.8019C135.818 89.4486 136.145 87.3136 136.145 84.3969C136.145 81.4802 135.818 79.3802 135.165 78.0969C134.511 76.8136 133.508 76.1719 132.155 76.1719C130.801 76.1719 129.798 76.8136 129.145 78.0969C128.491 79.3802 128.165 81.4802 128.165 84.3969C128.165 87.3136 128.491 89.4486 129.145 90.8019C129.798 92.1319 130.801 92.7969 132.155 92.7969ZM154.751 96.3669C154.471 96.8336 154.133 97.1369 153.736 97.2769C153.339 97.4402 152.943 97.4752 152.546 97.3819C152.149 97.2886 151.811 97.1019 151.531 96.8219C151.274 96.5186 151.111 96.1569 151.041 95.7369C150.971 95.3169 151.076 94.8736 151.356 94.4069L163.921 72.6369C164.201 72.1469 164.539 71.8202 164.936 71.6569C165.333 71.4936 165.718 71.4702 166.091 71.5869C166.488 71.6802 166.826 71.8786 167.106 72.1819C167.386 72.4619 167.561 72.8119 167.631 73.2319C167.701 73.6519 167.596 74.0952 167.316 74.5619L154.751 96.3669ZM150.341 86.8469C148.311 86.8469 146.736 86.1702 145.616 84.8169C144.496 83.4402 143.936 81.5969 143.936 79.2869C143.936 77.7236 144.181 76.3819 144.671 75.2619C145.184 74.1419 145.919 73.2786 146.876 72.6719C147.856 72.0652 149.011 71.7619 150.341 71.7619C152.348 71.7619 153.911 72.4502 155.031 73.8269C156.174 75.1802 156.746 77.0002 156.746 79.2869C156.746 80.8269 156.489 82.1686 155.976 83.3119C155.486 84.4319 154.763 85.3069 153.806 85.9369C152.849 86.5436 151.694 86.8469 150.341 86.8469ZM150.341 83.4869C150.808 83.4869 151.193 83.3469 151.496 83.0669C151.823 82.7636 152.068 82.3086 152.231 81.7019C152.418 81.0719 152.511 80.2669 152.511 79.2869C152.511 77.8169 152.313 76.7669 151.916 76.1369C151.543 75.4836 151.018 75.1569 150.341 75.1569C149.874 75.1569 149.478 75.2969 149.151 75.5769C148.824 75.8569 148.579 76.3002 148.416 76.9069C148.253 77.4902 148.171 78.2836 148.171 79.2869C148.171 80.7802 148.358 81.8536 148.731 82.5069C149.104 83.1602 149.641 83.4869 150.341 83.4869ZM168.366 97.2069C166.336 97.2069 164.761 96.5186 163.641 95.1419C162.521 93.7652 161.961 91.9219 161.961 89.6119C161.961 88.0719 162.218 86.7419 162.731 85.6219C163.244 84.5019 163.979 83.6386 164.936 83.0319C165.893 82.4252 167.036 82.1219 168.366 82.1219C170.373 82.1219 171.936 82.7986 173.056 84.1519C174.199 85.5052 174.771 87.3252 174.771 89.6119C174.771 91.1519 174.514 92.4936 174.001 93.6369C173.511 94.7802 172.788 95.6669 171.831 96.2969C170.874 96.9036 169.719 97.2069 168.366 97.2069ZM168.366 93.8119C168.833 93.8119 169.218 93.6719 169.521 93.3919C169.848 93.1119 170.093 92.6569 170.256 92.0269C170.443 91.3969 170.536 90.5919 170.536 89.6119C170.536 88.1419 170.338 87.0919 169.941 86.4619C169.568 85.8086 169.043 85.4819 168.366 85.4819C167.899 85.4819 167.503 85.6219 167.176 85.9019C166.873 86.1819 166.628 86.6252 166.441 87.2319C166.278 87.8386 166.196 88.6319 166.196 89.6119C166.196 91.1286 166.383 92.2136 166.756 92.8669C167.129 93.4969 167.666 93.8119 168.366 93.8119Z" fill="white"/>
<path d="M57.768 144.948C57.4133 144.948 57.1427 144.85 56.956 144.654C56.7693 144.458 56.676 144.182 56.676 143.828V136.058C56.676 135.694 56.7693 135.418 56.956 135.232C57.152 135.045 57.4273 134.952 57.782 134.952H61.184C62.2853 134.952 63.1347 135.232 63.732 135.792C64.3293 136.342 64.628 137.112 64.628 138.102C64.628 139.091 64.3293 139.866 63.732 140.426C63.1347 140.986 62.2853 141.266 61.184 141.266H58.846V143.828C58.846 144.182 58.7527 144.458 58.566 144.654C58.3887 144.85 58.1227 144.948 57.768 144.948ZM58.846 139.586H60.82C61.38 139.586 61.8047 139.46 62.094 139.208C62.3927 138.956 62.542 138.587 62.542 138.102C62.542 137.616 62.3927 137.252 62.094 137.01C61.8047 136.767 61.38 136.646 60.82 136.646H58.846V139.586ZM68.2689 144.976C67.4382 144.976 66.8175 144.747 66.4069 144.29C65.9962 143.823 65.7909 143.132 65.7909 142.218V135.904C65.7909 135.549 65.8795 135.283 66.0569 135.106C66.2435 134.919 66.5095 134.826 66.8549 134.826C67.1909 134.826 67.4475 134.919 67.6249 135.106C67.8115 135.283 67.9049 135.549 67.9049 135.904V142.134C67.9049 142.516 67.9842 142.801 68.1429 142.988C68.3109 143.165 68.5302 143.254 68.8009 143.254C68.8755 143.254 68.9455 143.249 69.0109 143.24C69.0762 143.23 69.1462 143.226 69.2209 143.226C69.3702 143.207 69.4729 143.254 69.5289 143.366C69.5942 143.468 69.6269 143.678 69.6269 143.996C69.6269 144.276 69.5709 144.49 69.4589 144.64C69.3469 144.78 69.1742 144.873 68.9409 144.92C68.8475 144.929 68.7402 144.938 68.6189 144.948C68.4975 144.966 68.3809 144.976 68.2689 144.976ZM72.777 144.976C72.273 144.976 71.8203 144.878 71.419 144.682C71.0177 144.486 70.705 144.22 70.481 143.884C70.257 143.548 70.145 143.17 70.145 142.75C70.145 142.246 70.2757 141.849 70.537 141.56C70.7983 141.261 71.223 141.051 71.811 140.93C72.399 140.799 73.1783 140.734 74.149 140.734H74.891V141.826H74.163C73.687 141.826 73.2997 141.854 73.001 141.91C72.7117 141.956 72.5017 142.04 72.371 142.162C72.2497 142.283 72.189 142.451 72.189 142.666C72.189 142.927 72.2777 143.142 72.455 143.31C72.6417 143.478 72.9077 143.562 73.253 143.562C73.5237 143.562 73.7617 143.501 73.967 143.38C74.1817 143.249 74.3497 143.076 74.471 142.862C74.5923 142.638 74.653 142.386 74.653 142.106V140.496C74.653 140.085 74.5597 139.796 74.373 139.628C74.1863 139.45 73.869 139.362 73.421 139.362C73.169 139.362 72.8937 139.394 72.595 139.46C72.3057 139.516 71.9837 139.614 71.629 139.754C71.4237 139.847 71.2417 139.87 71.083 139.824C70.9243 139.768 70.803 139.674 70.719 139.544C70.635 139.404 70.593 139.254 70.593 139.096C70.593 138.928 70.6397 138.769 70.733 138.62C70.8263 138.461 70.9803 138.344 71.195 138.27C71.6337 138.092 72.0443 137.971 72.427 137.906C72.819 137.84 73.1783 137.808 73.505 137.808C74.2237 137.808 74.8117 137.915 75.269 138.13C75.7357 138.335 76.0857 138.657 76.319 139.096C76.5523 139.525 76.669 140.08 76.669 140.762V143.87C76.669 144.215 76.585 144.481 76.417 144.668C76.249 144.854 76.0063 144.948 75.689 144.948C75.3717 144.948 75.1243 144.854 74.947 144.668C74.779 144.481 74.695 144.215 74.695 143.87V143.352L74.793 143.436C74.737 143.753 74.6157 144.028 74.429 144.262C74.2517 144.486 74.023 144.663 73.743 144.794C73.463 144.915 73.141 144.976 72.777 144.976ZM81.592 144.976C80.8453 144.976 80.192 144.831 79.632 144.542C79.0813 144.243 78.6566 143.823 78.358 143.282C78.0593 142.74 77.91 142.101 77.91 141.364C77.91 140.813 77.994 140.318 78.162 139.88C78.33 139.441 78.5726 139.068 78.89 138.76C79.2166 138.452 79.6086 138.218 80.066 138.06C80.5233 137.892 81.032 137.808 81.592 137.808C81.8813 137.808 82.1893 137.845 82.516 137.92C82.8426 137.985 83.1646 138.102 83.482 138.27C83.6686 138.354 83.7946 138.475 83.86 138.634C83.9346 138.783 83.9626 138.942 83.944 139.11C83.9253 139.268 83.8646 139.413 83.762 139.544C83.6686 139.665 83.5473 139.749 83.398 139.796C83.2486 139.833 83.0806 139.805 82.894 139.712C82.7166 139.609 82.53 139.534 82.334 139.488C82.1473 139.441 81.97 139.418 81.802 139.418C81.522 139.418 81.2746 139.464 81.06 139.558C80.8453 139.642 80.6633 139.768 80.514 139.936C80.374 140.094 80.262 140.295 80.178 140.538C80.1033 140.78 80.066 141.06 80.066 141.378C80.066 141.994 80.2153 142.479 80.514 142.834C80.822 143.179 81.2513 143.352 81.802 143.352C81.97 143.352 82.1473 143.333 82.334 143.296C82.5206 143.249 82.7073 143.174 82.894 143.072C83.0806 142.978 83.2486 142.955 83.398 143.002C83.5473 143.048 83.664 143.137 83.748 143.268C83.8413 143.389 83.8926 143.534 83.902 143.702C83.9206 143.86 83.8926 144.019 83.818 144.178C83.7526 144.327 83.6313 144.444 83.454 144.528C83.1366 144.686 82.8193 144.798 82.502 144.864C82.1846 144.938 81.8813 144.976 81.592 144.976ZM88.3648 144.976C87.5528 144.976 86.8528 144.831 86.2648 144.542C85.6861 144.243 85.2381 143.828 84.9208 143.296C84.6128 142.754 84.4588 142.12 84.4588 141.392C84.4588 140.682 84.6081 140.062 84.9068 139.53C85.2055 138.988 85.6208 138.568 86.1528 138.27C86.6941 137.962 87.3055 137.808 87.9868 137.808C88.4815 137.808 88.9295 137.892 89.3308 138.06C89.7321 138.218 90.0775 138.452 90.3668 138.76C90.6561 139.058 90.8755 139.427 91.0248 139.866C91.1741 140.295 91.2488 140.776 91.2488 141.308C91.2488 141.485 91.1928 141.62 91.0808 141.714C90.9688 141.798 90.8055 141.84 90.5908 141.84H86.1948V140.748H89.7228L89.4988 140.944C89.4988 140.561 89.4428 140.244 89.3308 139.992C89.2188 139.73 89.0555 139.534 88.8408 139.404C88.6355 139.273 88.3788 139.208 88.0708 139.208C87.7255 139.208 87.4315 139.287 87.1888 139.446C86.9461 139.604 86.7595 139.833 86.6288 140.132C86.4981 140.43 86.4328 140.79 86.4328 141.21V141.322C86.4328 142.031 86.5961 142.554 86.9228 142.89C87.2588 143.226 87.7535 143.394 88.4068 143.394C88.6308 143.394 88.8875 143.366 89.1768 143.31C89.4661 143.254 89.7368 143.165 89.9888 143.044C90.2035 142.941 90.3948 142.908 90.5628 142.946C90.7308 142.974 90.8615 143.048 90.9548 143.17C91.0481 143.291 91.0995 143.431 91.1088 143.59C91.1275 143.748 91.0948 143.907 91.0108 144.066C90.9268 144.215 90.7868 144.341 90.5908 144.444C90.2735 144.621 89.9141 144.752 89.5128 144.836C89.1208 144.929 88.7381 144.976 88.3648 144.976ZM93.5704 144.948C93.225 144.948 92.959 144.854 92.7724 144.668C92.595 144.481 92.5064 144.215 92.5064 143.87V138.9C92.5064 138.554 92.595 138.293 92.7724 138.116C92.959 137.929 93.2157 137.836 93.5424 137.836C93.8784 137.836 94.135 137.929 94.3124 138.116C94.4897 138.293 94.5784 138.554 94.5784 138.9V139.796L94.4244 139.236C94.611 138.806 94.9004 138.461 95.2924 138.2C95.6844 137.938 96.1464 137.808 96.6784 137.808C97.2104 137.808 97.6537 137.934 98.0084 138.186C98.363 138.438 98.615 138.825 98.7644 139.348H98.5684C98.7737 138.872 99.0864 138.498 99.5064 138.228C99.9357 137.948 100.426 137.808 100.976 137.808C101.508 137.808 101.942 137.915 102.278 138.13C102.624 138.335 102.88 138.652 103.048 139.082C103.216 139.502 103.3 140.038 103.3 140.692V143.87C103.3 144.215 103.207 144.481 103.02 144.668C102.843 144.854 102.586 144.948 102.25 144.948C101.905 144.948 101.639 144.854 101.452 144.668C101.275 144.481 101.186 144.215 101.186 143.87V140.762C101.186 140.304 101.112 139.973 100.962 139.768C100.822 139.553 100.58 139.446 100.234 139.446C99.833 139.446 99.5204 139.586 99.2964 139.866C99.0724 140.146 98.9604 140.542 98.9604 141.056V143.87C98.9604 144.215 98.867 144.481 98.6804 144.668C98.503 144.854 98.2464 144.948 97.9104 144.948C97.5744 144.948 97.313 144.854 97.1264 144.668C96.9397 144.481 96.8464 144.215 96.8464 143.87V140.762C96.8464 140.304 96.7717 139.973 96.6224 139.768C96.4824 139.553 96.2397 139.446 95.8944 139.446C95.493 139.446 95.1804 139.586 94.9564 139.866C94.7324 140.146 94.6204 140.542 94.6204 141.056V143.87C94.6204 144.588 94.2704 144.948 93.5704 144.948ZM108.49 144.976C107.678 144.976 106.978 144.831 106.39 144.542C105.811 144.243 105.363 143.828 105.046 143.296C104.738 142.754 104.584 142.12 104.584 141.392C104.584 140.682 104.733 140.062 105.032 139.53C105.33 138.988 105.746 138.568 106.278 138.27C106.819 137.962 107.43 137.808 108.112 137.808C108.606 137.808 109.054 137.892 109.456 138.06C109.857 138.218 110.202 138.452 110.492 138.76C110.781 139.058 111 139.427 111.15 139.866C111.299 140.295 111.374 140.776 111.374 141.308C111.374 141.485 111.318 141.62 111.206 141.714C111.094 141.798 110.93 141.84 110.716 141.84H106.32V140.748H109.848L109.624 140.944C109.624 140.561 109.568 140.244 109.456 139.992C109.344 139.73 109.18 139.534 108.966 139.404C108.76 139.273 108.504 139.208 108.196 139.208C107.85 139.208 107.556 139.287 107.314 139.446C107.071 139.604 106.884 139.833 106.754 140.132C106.623 140.43 106.558 140.79 106.558 141.21V141.322C106.558 142.031 106.721 142.554 107.048 142.89C107.384 143.226 107.878 143.394 108.532 143.394C108.756 143.394 109.012 143.366 109.302 143.31C109.591 143.254 109.862 143.165 110.114 143.044C110.328 142.941 110.52 142.908 110.688 142.946C110.856 142.974 110.986 143.048 111.08 143.17C111.173 143.291 111.224 143.431 111.234 143.59C111.252 143.748 111.22 143.907 111.136 144.066C111.052 144.215 110.912 144.341 110.716 144.444C110.398 144.621 110.039 144.752 109.638 144.836C109.246 144.929 108.863 144.976 108.49 144.976ZM113.667 144.948C113.322 144.948 113.056 144.854 112.869 144.668C112.692 144.481 112.603 144.215 112.603 143.87V138.9C112.603 138.554 112.692 138.293 112.869 138.116C113.056 137.929 113.313 137.836 113.639 137.836C113.975 137.836 114.232 137.929 114.409 138.116C114.587 138.293 114.675 138.554 114.675 138.9V139.698L114.521 139.236C114.736 138.778 115.053 138.428 115.473 138.186C115.903 137.934 116.388 137.808 116.929 137.808C117.48 137.808 117.933 137.915 118.287 138.13C118.642 138.335 118.908 138.652 119.085 139.082C119.263 139.502 119.351 140.038 119.351 140.692V143.87C119.351 144.215 119.258 144.481 119.071 144.668C118.894 144.854 118.633 144.948 118.287 144.948C117.951 144.948 117.69 144.854 117.503 144.668C117.326 144.481 117.237 144.215 117.237 143.87V140.79C117.237 140.314 117.149 139.973 116.971 139.768C116.803 139.553 116.542 139.446 116.187 139.446C115.739 139.446 115.38 139.586 115.109 139.866C114.848 140.146 114.717 140.519 114.717 140.986V143.87C114.717 144.588 114.367 144.948 113.667 144.948ZM124.304 144.976C123.66 144.976 123.118 144.868 122.68 144.654C122.25 144.439 121.928 144.126 121.714 143.716C121.508 143.305 121.406 142.787 121.406 142.162V139.53H120.818C120.556 139.53 120.351 139.46 120.202 139.32C120.062 139.18 119.992 138.988 119.992 138.746C119.992 138.484 120.062 138.288 120.202 138.158C120.351 138.018 120.556 137.948 120.818 137.948H121.406V136.884C121.406 136.529 121.499 136.263 121.686 136.086C121.872 135.899 122.134 135.806 122.47 135.806C122.815 135.806 123.076 135.899 123.254 136.086C123.431 136.263 123.52 136.529 123.52 136.884V137.948H124.85C125.111 137.948 125.312 138.018 125.452 138.158C125.592 138.288 125.662 138.484 125.662 138.746C125.662 138.988 125.592 139.18 125.452 139.32C125.312 139.46 125.111 139.53 124.85 139.53H123.52V142.078C123.52 142.47 123.608 142.764 123.786 142.96C123.972 143.156 124.266 143.254 124.668 143.254C124.808 143.254 124.938 143.24 125.06 143.212C125.181 143.184 125.293 143.165 125.396 143.156C125.526 143.146 125.634 143.188 125.718 143.282C125.802 143.366 125.844 143.557 125.844 143.856C125.844 144.08 125.806 144.276 125.732 144.444C125.657 144.612 125.526 144.733 125.34 144.808C125.218 144.854 125.05 144.892 124.836 144.92C124.63 144.957 124.453 144.976 124.304 144.976ZM130.962 144.948C130.701 144.948 130.486 144.887 130.318 144.766C130.159 144.644 130.057 144.481 130.01 144.276C129.973 144.07 130.015 143.842 130.136 143.59L133.72 135.736C133.869 135.418 134.047 135.19 134.252 135.05C134.457 134.9 134.695 134.826 134.966 134.826C135.237 134.826 135.475 134.9 135.68 135.05C135.885 135.19 136.058 135.418 136.198 135.736L139.81 143.59C139.931 143.842 139.973 144.075 139.936 144.29C139.908 144.495 139.815 144.658 139.656 144.78C139.497 144.892 139.292 144.948 139.04 144.948C138.723 144.948 138.475 144.873 138.298 144.724C138.13 144.574 137.981 144.341 137.85 144.024L137.01 142.078L137.878 142.68H132.04L132.908 142.078L132.082 144.024C131.942 144.35 131.793 144.588 131.634 144.738C131.485 144.878 131.261 144.948 130.962 144.948ZM134.938 137.262L133.146 141.532L132.768 140.986H137.15L136.772 141.532L134.966 137.262H134.938ZM143.55 144.976C143.139 144.976 142.715 144.938 142.276 144.864C141.847 144.789 141.455 144.663 141.1 144.486C140.913 144.392 140.778 144.276 140.694 144.136C140.619 143.986 140.587 143.837 140.596 143.688C140.605 143.538 140.652 143.403 140.736 143.282C140.829 143.16 140.946 143.081 141.086 143.044C141.235 142.997 141.399 143.011 141.576 143.086C141.959 143.244 142.309 143.356 142.626 143.422C142.943 143.487 143.256 143.52 143.564 143.52C143.965 143.52 144.255 143.459 144.432 143.338C144.619 143.207 144.712 143.039 144.712 142.834C144.712 142.647 144.651 142.507 144.53 142.414C144.409 142.32 144.231 142.255 143.998 142.218L142.528 141.952C141.949 141.849 141.501 141.639 141.184 141.322C140.876 140.995 140.722 140.58 140.722 140.076C140.722 139.609 140.853 139.208 141.114 138.872C141.375 138.526 141.735 138.265 142.192 138.088C142.659 137.901 143.186 137.808 143.774 137.808C144.194 137.808 144.581 137.845 144.936 137.92C145.291 137.994 145.631 138.116 145.958 138.284C146.126 138.368 146.243 138.48 146.308 138.62C146.383 138.76 146.406 138.904 146.378 139.054C146.359 139.203 146.303 139.338 146.21 139.46C146.117 139.581 145.995 139.66 145.846 139.698C145.706 139.735 145.543 139.716 145.356 139.642C145.057 139.502 144.782 139.404 144.53 139.348C144.278 139.282 144.035 139.25 143.802 139.25C143.382 139.25 143.079 139.32 142.892 139.46C142.705 139.59 142.612 139.758 142.612 139.964C142.612 140.122 142.663 140.258 142.766 140.37C142.878 140.472 143.046 140.542 143.27 140.58L144.74 140.846C145.347 140.948 145.809 141.154 146.126 141.462C146.443 141.76 146.602 142.171 146.602 142.694C146.602 143.403 146.322 143.963 145.762 144.374C145.211 144.775 144.474 144.976 143.55 144.976ZM150.44 144.976C150.03 144.976 149.605 144.938 149.166 144.864C148.737 144.789 148.345 144.663 147.99 144.486C147.804 144.392 147.668 144.276 147.584 144.136C147.51 143.986 147.477 143.837 147.486 143.688C147.496 143.538 147.542 143.403 147.626 143.282C147.72 143.16 147.836 143.081 147.976 143.044C148.126 142.997 148.289 143.011 148.466 143.086C148.849 143.244 149.199 143.356 149.516 143.422C149.834 143.487 150.146 143.52 150.454 143.52C150.856 143.52 151.145 143.459 151.322 143.338C151.509 143.207 151.602 143.039 151.602 142.834C151.602 142.647 151.542 142.507 151.42 142.414C151.299 142.32 151.122 142.255 150.888 142.218L149.418 141.952C148.84 141.849 148.392 141.639 148.074 141.322C147.766 140.995 147.612 140.58 147.612 140.076C147.612 139.609 147.743 139.208 148.004 138.872C148.266 138.526 148.625 138.265 149.082 138.088C149.549 137.901 150.076 137.808 150.664 137.808C151.084 137.808 151.472 137.845 151.826 137.92C152.181 137.994 152.522 138.116 152.848 138.284C153.016 138.368 153.133 138.48 153.198 138.62C153.273 138.76 153.296 138.904 153.268 139.054C153.25 139.203 153.194 139.338 153.1 139.46C153.007 139.581 152.886 139.66 152.736 139.698C152.596 139.735 152.433 139.716 152.246 139.642C151.948 139.502 151.672 139.404 151.42 139.348C151.168 139.282 150.926 139.25 150.692 139.25C150.272 139.25 149.969 139.32 149.782 139.46C149.596 139.59 149.502 139.758 149.502 139.964C149.502 140.122 149.554 140.258 149.656 140.37C149.768 140.472 149.936 140.542 150.16 140.58L151.63 140.846C152.237 140.948 152.699 141.154 153.016 141.462C153.334 141.76 153.492 142.171 153.492 142.694C153.492 143.403 153.212 143.963 152.652 144.374C152.102 144.775 151.364 144.976 150.44 144.976ZM155.763 144.934C155.418 144.934 155.152 144.836 154.965 144.64C154.788 144.434 154.699 144.15 154.699 143.786V138.998C154.699 138.624 154.788 138.34 154.965 138.144C155.152 137.938 155.418 137.836 155.763 137.836C156.099 137.836 156.356 137.938 156.533 138.144C156.72 138.34 156.813 138.624 156.813 138.998V143.786C156.813 144.15 156.724 144.434 156.547 144.64C156.37 144.836 156.108 144.934 155.763 144.934ZM155.763 136.688C155.371 136.688 155.068 136.599 154.853 136.422C154.648 136.235 154.545 135.974 154.545 135.638C154.545 135.292 154.648 135.031 154.853 134.854C155.068 134.667 155.371 134.574 155.763 134.574C156.155 134.574 156.454 134.667 156.659 134.854C156.864 135.031 156.967 135.292 156.967 135.638C156.967 135.974 156.864 136.235 156.659 136.422C156.454 136.599 156.155 136.688 155.763 136.688ZM161.077 144.976C160.667 144.976 160.242 144.938 159.803 144.864C159.374 144.789 158.982 144.663 158.627 144.486C158.441 144.392 158.305 144.276 158.221 144.136C158.147 143.986 158.114 143.837 158.123 143.688C158.133 143.538 158.179 143.403 158.263 143.282C158.357 143.16 158.473 143.081 158.613 143.044C158.763 142.997 158.926 143.011 159.103 143.086C159.486 143.244 159.836 143.356 160.153 143.422C160.471 143.487 160.783 143.52 161.091 143.52C161.493 143.52 161.782 143.459 161.959 143.338C162.146 143.207 162.239 143.039 162.239 142.834C162.239 142.647 162.179 142.507 162.057 142.414C161.936 142.32 161.759 142.255 161.525 142.218L160.055 141.952C159.477 141.849 159.029 141.639 158.711 141.322C158.403 140.995 158.249 140.58 158.249 140.076C158.249 139.609 158.38 139.208 158.641 138.872C158.903 138.526 159.262 138.265 159.719 138.088C160.186 137.901 160.713 137.808 161.301 137.808C161.721 137.808 162.109 137.845 162.463 137.92C162.818 137.994 163.159 138.116 163.485 138.284C163.653 138.368 163.77 138.48 163.835 138.62C163.91 138.76 163.933 138.904 163.905 139.054C163.887 139.203 163.831 139.338 163.737 139.46C163.644 139.581 163.523 139.66 163.373 139.698C163.233 139.735 163.07 139.716 162.883 139.642C162.585 139.502 162.309 139.404 162.057 139.348C161.805 139.282 161.563 139.25 161.329 139.25C160.909 139.25 160.606 139.32 160.419 139.46C160.233 139.59 160.139 139.758 160.139 139.964C160.139 140.122 160.191 140.258 160.293 140.37C160.405 140.472 160.573 140.542 160.797 140.58L162.267 140.846C162.874 140.948 163.336 141.154 163.653 141.462C163.971 141.76 164.129 142.171 164.129 142.694C164.129 143.403 163.849 143.963 163.289 144.374C162.739 144.775 162.001 144.976 161.077 144.976ZM168.641 144.976C167.997 144.976 167.456 144.868 167.017 144.654C166.588 144.439 166.266 144.126 166.051 143.716C165.846 143.305 165.743 142.787 165.743 142.162V139.53H165.155C164.894 139.53 164.689 139.46 164.539 139.32C164.399 139.18 164.329 138.988 164.329 138.746C164.329 138.484 164.399 138.288 164.539 138.158C164.689 138.018 164.894 137.948 165.155 137.948H165.743V136.884C165.743 136.529 165.837 136.263 166.023 136.086C166.21 135.899 166.471 135.806 166.807 135.806C167.153 135.806 167.414 135.899 167.591 136.086C167.769 136.263 167.857 136.529 167.857 136.884V137.948H169.187C169.449 137.948 169.649 138.018 169.789 138.158C169.929 138.288 169.999 138.484 169.999 138.746C169.999 138.988 169.929 139.18 169.789 139.32C169.649 139.46 169.449 139.53 169.187 139.53H167.857V142.078C167.857 142.47 167.946 142.764 168.123 142.96C168.31 143.156 168.604 143.254 169.005 143.254C169.145 143.254 169.276 143.24 169.397 143.212C169.519 143.184 169.631 143.165 169.733 143.156C169.864 143.146 169.971 143.188 170.055 143.282C170.139 143.366 170.181 143.557 170.181 143.856C170.181 144.08 170.144 144.276 170.069 144.444C169.995 144.612 169.864 144.733 169.677 144.808C169.556 144.854 169.388 144.892 169.173 144.92C168.968 144.957 168.791 144.976 168.641 144.976ZM173.252 144.976C172.748 144.976 172.295 144.878 171.894 144.682C171.492 144.486 171.18 144.22 170.956 143.884C170.732 143.548 170.62 143.17 170.62 142.75C170.62 142.246 170.75 141.849 171.012 141.56C171.273 141.261 171.698 141.051 172.286 140.93C172.874 140.799 173.653 140.734 174.624 140.734H175.366V141.826H174.638C174.162 141.826 173.774 141.854 173.476 141.91C173.186 141.956 172.976 142.04 172.846 142.162C172.724 142.283 172.664 142.451 172.664 142.666C172.664 142.927 172.752 143.142 172.93 143.31C173.116 143.478 173.382 143.562 173.728 143.562C173.998 143.562 174.236 143.501 174.442 143.38C174.656 143.249 174.824 143.076 174.946 142.862C175.067 142.638 175.128 142.386 175.128 142.106V140.496C175.128 140.085 175.034 139.796 174.848 139.628C174.661 139.45 174.344 139.362 173.896 139.362C173.644 139.362 173.368 139.394 173.07 139.46C172.78 139.516 172.458 139.614 172.104 139.754C171.898 139.847 171.716 139.87 171.558 139.824C171.399 139.768 171.278 139.674 171.194 139.544C171.11 139.404 171.068 139.254 171.068 139.096C171.068 138.928 171.114 138.769 171.208 138.62C171.301 138.461 171.455 138.344 171.67 138.27C172.108 138.092 172.519 137.971 172.902 137.906C173.294 137.84 173.653 137.808 173.98 137.808C174.698 137.808 175.286 137.915 175.744 138.13C176.21 138.335 176.56 138.657 176.794 139.096C177.027 139.525 177.144 140.08 177.144 140.762V143.87C177.144 144.215 177.06 144.481 176.892 144.668C176.724 144.854 176.481 144.948 176.164 144.948C175.846 144.948 175.599 144.854 175.422 144.668C175.254 144.481 175.17 144.215 175.17 143.87V143.352L175.268 143.436C175.212 143.753 175.09 144.028 174.904 144.262C174.726 144.486 174.498 144.663 174.218 144.794C173.938 144.915 173.616 144.976 173.252 144.976ZM179.785 144.948C179.439 144.948 179.173 144.854 178.987 144.668C178.809 144.481 178.721 144.215 178.721 143.87V138.9C178.721 138.554 178.809 138.293 178.987 138.116C179.173 137.929 179.43 137.836 179.757 137.836C180.093 137.836 180.349 137.929 180.527 138.116C180.704 138.293 180.793 138.554 180.793 138.9V139.698L180.639 139.236C180.853 138.778 181.171 138.428 181.591 138.186C182.02 137.934 182.505 137.808 183.047 137.808C183.597 137.808 184.05 137.915 184.405 138.13C184.759 138.335 185.025 138.652 185.203 139.082C185.38 139.502 185.469 140.038 185.469 140.692V143.87C185.469 144.215 185.375 144.481 185.189 144.668C185.011 144.854 184.75 144.948 184.405 144.948C184.069 144.948 183.807 144.854 183.621 144.668C183.443 144.481 183.355 144.215 183.355 143.87V140.79C183.355 140.314 183.266 139.973 183.089 139.768C182.921 139.553 182.659 139.446 182.305 139.446C181.857 139.446 181.497 139.586 181.227 139.866C180.965 140.146 180.835 140.519 180.835 140.986V143.87C180.835 144.588 180.485 144.948 179.785 144.948ZM190.393 144.976C189.646 144.976 188.993 144.831 188.433 144.542C187.882 144.243 187.457 143.823 187.159 143.282C186.86 142.74 186.711 142.101 186.711 141.364C186.711 140.813 186.795 140.318 186.963 139.88C187.131 139.441 187.373 139.068 187.691 138.76C188.017 138.452 188.409 138.218 188.867 138.06C189.324 137.892 189.833 137.808 190.393 137.808C190.682 137.808 190.99 137.845 191.317 137.92C191.643 137.985 191.965 138.102 192.283 138.27C192.469 138.354 192.595 138.475 192.661 138.634C192.735 138.783 192.763 138.942 192.745 139.11C192.726 139.268 192.665 139.413 192.563 139.544C192.469 139.665 192.348 139.749 192.199 139.796C192.049 139.833 191.881 139.805 191.695 139.712C191.517 139.609 191.331 139.534 191.135 139.488C190.948 139.441 190.771 139.418 190.603 139.418C190.323 139.418 190.075 139.464 189.861 139.558C189.646 139.642 189.464 139.768 189.315 139.936C189.175 140.094 189.063 140.295 188.979 140.538C188.904 140.78 188.867 141.06 188.867 141.378C188.867 141.994 189.016 142.479 189.315 142.834C189.623 143.179 190.052 143.352 190.603 143.352C190.771 143.352 190.948 143.333 191.135 143.296C191.321 143.249 191.508 143.174 191.695 143.072C191.881 142.978 192.049 142.955 192.199 143.002C192.348 143.048 192.465 143.137 192.549 143.268C192.642 143.389 192.693 143.534 192.703 143.702C192.721 143.86 192.693 144.019 192.619 144.178C192.553 144.327 192.432 144.444 192.255 144.528C191.937 144.686 191.62 144.798 191.303 144.864C190.985 144.938 190.682 144.976 190.393 144.976ZM197.166 144.976C196.354 144.976 195.654 144.831 195.066 144.542C194.487 144.243 194.039 143.828 193.722 143.296C193.414 142.754 193.26 142.12 193.26 141.392C193.26 140.682 193.409 140.062 193.708 139.53C194.006 138.988 194.422 138.568 194.954 138.27C195.495 137.962 196.106 137.808 196.788 137.808C197.282 137.808 197.73 137.892 198.132 138.06C198.533 138.218 198.878 138.452 199.168 138.76C199.457 139.058 199.676 139.427 199.826 139.866C199.975 140.295 200.05 140.776 200.05 141.308C200.05 141.485 199.994 141.62 199.882 141.714C199.77 141.798 199.606 141.84 199.392 141.84H194.996V140.748H198.524L198.3 140.944C198.3 140.561 198.244 140.244 198.132 139.992C198.02 139.73 197.856 139.534 197.642 139.404C197.436 139.273 197.18 139.208 196.872 139.208C196.526 139.208 196.232 139.287 195.99 139.446C195.747 139.604 195.56 139.833 195.43 140.132C195.299 140.43 195.234 140.79 195.234 141.21V141.322C195.234 142.031 195.397 142.554 195.724 142.89C196.06 143.226 196.554 143.394 197.208 143.394C197.432 143.394 197.688 143.366 197.978 143.31C198.267 143.254 198.538 143.165 198.79 143.044C199.004 142.941 199.196 142.908 199.364 142.946C199.532 142.974 199.662 143.048 199.756 143.17C199.849 143.291 199.9 143.431 199.91 143.59C199.928 143.748 199.896 143.907 199.812 144.066C199.728 144.215 199.588 144.341 199.392 144.444C199.074 144.621 198.715 144.752 198.314 144.836C197.922 144.929 197.539 144.976 197.166 144.976Z" fill="#24A3BE"/>
</g>
<defs>
<filter id="filter0_d_5_19" x="0.10498" y="0.644287" width="256.154" height="200.355" filterUnits="userSpaceOnUse" color-interpolation-filters="sRGB">
<feFlood flood-opacity="0" result="BackgroundImageFix"/>
<feColorMatrix in="SourceAlpha" type="matrix" values="0 0 0 0 0 0 0 0 0 0 0 0 0 0 0 0 0 0 127 0" result="hardAlpha"/>
<feOffset dy="4"/>
<feGaussianBlur stdDeviation="19.5"/>
<feComposite in2="hardAlpha" operator="out"/>
<feColorMatrix type="matrix" values="0 0 0 0 0 0 0 0 0 0 0 0 0 0 0 0 0 0 0.1 0"/>
<feBlend mode="normal" in2="BackgroundImageFix" result="effect1_dropShadow_5_19"/>
<feBlend mode="normal" in="SourceGraphic" in2="effect1_dropShadow_5_19" result="shape"/>
</filter>
</defs>
</svg>
