<svg width="46" height="38" viewBox="0 0 46 38" fill="none" xmlns="http://www.w3.org/2000/svg">
<path fill-rule="evenodd" clip-rule="evenodd" d="M19.1138 19.0358H24.4423V13.7074H19.1138V19.0358ZM27.1065 27.0285H32.4349V21.7H27.1065V27.0285ZM19.1138 27.0285H24.4423V21.7H19.1138V27.0285ZM11.1212 27.0285H16.4496V21.7H11.1212V27.0285ZM11.1212 19.0358H16.4496V13.7074H11.1212V19.0358ZM32.4349 3.05056V13.7074H43.0918V35.0211H3.12854V3.05053H32.4349L32.4349 3.05056ZM35.0991 3.60205L42.5403 11.0432H35.0991V3.60205ZM44.5864 9.32212L36.8202 1.55591C36.0769 0.812606 35.0458 0.386322 33.9962 0.386322H0.464355V37.6853H45.756V12.1462C45.756 11.0805 45.3404 10.0761 44.5864 9.32212Z" fill="white"/>
</svg>
