<svg width="52" height="34" viewBox="0 0 52 34" fill="none" xmlns="http://www.w3.org/2000/svg">
<path d="M47.928 2.35149H4.30188C3.19731 2.35149 2.30188 3.24692 2.30188 4.35149V29.5837C2.30188 30.6883 3.19731 31.5837 4.30188 31.5837H47.928C49.0325 31.5837 49.928 30.6883 49.928 29.5837V4.35149C49.928 3.24692 49.0325 2.35149 47.928 2.35149Z" stroke="white" stroke-width="3"/>
<path d="M11.7035 2.20469C11.7097 3.49398 11.472 4.77184 11.0042 5.96484C10.5364 7.15785 9.84758 8.24248 8.97742 9.15643C8.10727 10.0704 7.07288 10.7956 5.93371 11.2905C4.79454 11.7854 3.57302 12.0401 2.33936 12.0401" stroke="white" stroke-width="3"/>
<path d="M11.9751 31.5837C11.9627 28.9921 10.9722 26.5104 9.21876 24.6778C7.4653 22.8453 5.09064 21.8101 2.6109 21.7972" stroke="white" stroke-width="3"/>
<path d="M40.6762 2.20469C40.6762 4.8132 41.6677 7.31488 43.4326 9.15938C45.1975 11.0039 47.5912 12.0401 50.0872 12.0401" stroke="white" stroke-width="3"/>
<path d="M40.5264 31.5837C40.5387 28.9921 41.5292 26.5104 43.2827 24.6778C45.0361 22.8453 47.4108 21.8101 49.8905 21.7972" stroke="white" stroke-width="3"/>
<path d="M22.2382 7.83192H24.6073C26.939 7.83192 29.5047 8.62462 29.5047 12.3337C29.5047 16.3559 26.246 17.8924 22.7813 17.4814C22.7404 17.4764 22.699 17.4849 22.663 17.5058C22.6269 17.5266 22.5981 17.5588 22.5805 17.5977C22.5629 17.6367 22.5575 17.6804 22.5649 17.7227C22.5724 17.7651 22.5924 17.8039 22.6221 17.8337L29.9823 26.1326" stroke="white" stroke-width="3" stroke-linecap="round" />
<path d="M32.3234 7.83192H24.0923" stroke="white" stroke-width="3" stroke-linecap="round" />
<path d="M22.3505 12.4609H32.3795" stroke="white" stroke-width="3" stroke-linecap="round" />
</svg>
