<svg width="48" height="47" viewBox="0 0 48 47" fill="none" xmlns="http://www.w3.org/2000/svg">
<path d="M7.36224 23.6245C6.24099 22.4047 6.32089 20.5069 7.54071 19.3856L24.756 3.56134C25.9759 2.44009 27.8737 2.51999 28.9949 3.73981L36.3537 11.7454C37.4749 12.9652 37.395 14.863 36.1752 15.9843L18.9599 31.8086C17.74 32.9298 15.8422 32.8499 14.721 31.6301L7.36224 23.6245Z" fill="white"/>
<path d="M10.257 22.7905C9.50953 21.9773 9.5628 20.7121 10.376 19.9646L16.2445 14.5703C17.0577 13.8228 18.3229 13.8761 19.0704 14.6893L24.5749 20.6777C25.3224 21.4909 25.2691 22.7561 24.4559 23.5036L18.5875 28.8979C17.7743 29.6454 16.5091 29.5921 15.7616 28.7789L10.257 22.7905Z" fill="#FB73A1"/>
<path d="M8.75879 32.5296L34.6536 32.6391" stroke="white" stroke-width="3" stroke-linecap="round"/>
</svg>
